<svg version="1.1" id="Layer_1" xmlns="http://www.w3.org/2000/svg" viewBox="0 0 511.993 511.993" xml:space="preserve"><path transform="rotate(-134.999 84.85 427.145)" style="fill:#56545a" d="M61.962 330.035h45.775v194.216H61.962z"/><circle style="fill:#b4d8f1" cx="290.846" cy="221.149" r="198.368"/><path style="fill:#98c8ed" d="M431.107 80.884 150.574 361.419c77.467 77.467 203.068 77.467 280.535 0 77.466-77.467 77.466-203.067-.002-280.535z"/><path style="fill:#ff4f19" d="m290.84 312.706 88.835-88.835c18.076-18.076 18.076-47.382 0-65.457-18.076-18.076-47.382-18.076-65.457 0l-23.378 23.377-23.378-23.377c-18.076-18.076-47.382-18.076-65.457 0-18.076 18.076-18.076 47.382 0 65.457l88.835 88.835z"/><path style="fill:#aeadb3" d="M134.388 377.605c-86.267-86.267-86.267-226.637 0-312.904s226.637-86.267 312.904 0 86.267 226.637 0 312.904-226.636 86.267-312.904 0zM414.924 97.07c-68.42-68.419-179.746-68.419-248.166 0-68.419 68.419-68.419 179.746 0 248.166 68.419 68.419 179.746 68.419 248.166 0 68.418-68.42 68.418-179.748 0-248.166z"/><path style="fill:#af2e08" d="M379.677 158.413c-18.076-18.076-47.382-18.076-65.458 0L290.84 181.79v130.915l88.835-88.835c18.076-18.075 18.076-47.381.002-65.457z"/><path style="fill:#88888f" d="m447.293 64.701-32.37 32.369c68.419 68.419 68.419 179.746 0 248.166-68.42 68.419-179.746 68.419-248.166 0l-32.369 32.369c86.267 86.267 226.637 86.267 312.904 0s86.268-226.637.001-312.904z"/></svg>